<svg width="1024" height="1024" viewBox="0 0 1024 1024" fill="none" xmlns="http://www.w3.org/2000/svg">
  <rect width="1024" height="1024" rx="248" fill="#F2E9DD"/>
  <rect x="84" y="84" width="856" height="856" rx="212" fill="#111111"/>
  <path d="M515.512 206C382.742 286.876 296 433.006 296 584.758C296 720.482 392.154 818 517.412 818C645.735 818 728 718.716 728 581.263C728 432.44 641.577 288.195 515.512 206Z" fill="#F2E9DD"/>
  <path d="M603.791 265.929C643.885 313.931 668 375.904 668 442.542C668 596.181 571.126 711 446.143 711C413.259 711 382.563 703.037 354.78 688.374C394.881 768.72 470.933 818 556.638 818C673.17 818 748 722.161 748 589.089C748 468.172 690.721 347.717 603.791 265.929Z" fill="#D8CCBC"/>
  <path d="M553.587 236C676.926 278.387 745 390.55 745 509.41C745 536.265 741.655 562.771 735.179 588.25C674.052 553.043 620.257 491.042 587.889 412.603C564.422 355.721 553.587 293.506 553.587 236Z" fill="#111111"/>
  <path d="M548.277 310C613.926 347.094 654 417.312 654 492.32C654 590.218 588.281 664 502.574 664C475.856 664 450.717 656.858 428 643.78C439.744 720.318 496.805 776 570.345 776C650.878 776 710 707.675 710 607.112C710 488.147 646.504 379.346 548.277 310Z" fill="#111111" fill-opacity="0.08"/>
  <path d="M465.44 465.914C512.725 465.914 556.377 487.028 588.282 523.313C554.745 585.673 497.649 632.782 430.563 652.993C413.867 612.694 404.88 568.621 404.88 522.772C404.88 503.257 406.74 484.105 410.293 465.914H465.44Z" fill="#111111"/>
  <circle cx="694" cy="338" r="26" fill="#F2E9DD" fill-opacity="0.88"/>
</svg>